<svg xmlns="http://www.w3.org/2000/svg" width="153.195" height="111.52" viewBox="0 0 153.195 111.52">
  <path id="People_icon" data-name="People icon" d="M153.151,167.455l-2.36-14.472a15.193,15.193,0,0,0-11.381-14.775l-4.747-1.845a.622.622,0,0,0-.1-.036l-6.358-2.447-.4-.153a4.579,4.579,0,0,1-2.938-4.157v-.162l.021-.015a22.5,22.5,0,0,0,5.786-7.619,7.2,7.2,0,0,0,4.421-3.7,12.9,12.9,0,0,0,1.426-4.876,4.681,4.681,0,0,0-1.7-3.894c-.53-12.519-9.285-22.508-19.965-22.508A18.2,18.2,0,0,0,101.9,92.51c-3.178-13.091-13.325-22.69-25.32-22.69-11.791,0-22.082,9.5-25.341,22.741A18.2,18.2,0,0,0,38.189,86.8c-9.935,0-18.464,8.847-19.839,20.582-.09.776-.15,1.56-.177,2.345a4.878,4.878,0,0,0-1.5,3.468c.282,3.708,2.162,7.509,5.756,8.464a21.981,21.981,0,0,0,6.155,7.9l.042.033a4.193,4.193,0,0,1-2.911,3.929l-.1.033-6.334,2.07-.2.063-5.547,1.812A15.284,15.284,0,0,0,2.4,152.237L.027,167.473a2.243,2.243,0,0,0,2.219,2.591H26.877l-1.345,8.686a2.249,2.249,0,0,0,2.219,2.591h97.842a2.246,2.246,0,0,0,2.216-2.609l-1.42-8.668h24.559a2.249,2.249,0,0,0,2.216-2.609Zm-27.291-26.44,2.171-2.375h0l1.956.752-8.23,9.252a19.75,19.75,0,0,0-2.618-3.5,14.358,14.358,0,0,0,6.721-4.133Zm-10.782.183a9.652,9.652,0,0,1-1.414-.129h0a19.254,19.254,0,0,0-3.624-1.363h0a9.926,9.926,0,0,1-2.3-1.983l-1.2-1.414a8.686,8.686,0,0,0,2.869-4.238,14.121,14.121,0,0,0,5.547,1.2,14.394,14.394,0,0,0,5.8-1.249,9.042,9.042,0,0,0,3.085,4.576l-1.282,1.4a9.848,9.848,0,0,1-7.485,3.2ZM114.856,91.3c6.607,0,12.262,5.154,14.487,12.39-3.795-3.642-7.733-5.882-14.19-5.454a13.237,13.237,0,0,0-9.234,3.214,9.554,9.554,0,0,0-1.06,1.1,6.316,6.316,0,0,0-1.947-2.555c-.018-.512-.045-1.018-.081-1.524,2.893-4.388,7.245-7.167,12.022-7.167ZM103.373,111.13c.171-.314.323-.629.464-.94l1.833-.8a3.693,3.693,0,0,0,2.2-3.214c.1-.928,3.277-3.741,7.1-3.447a2.553,2.553,0,0,0,.338,0c6.931-.506,9.9,2.827,15.275,8.88l.135.15h0a2.27,2.27,0,0,0,1,.824,1.15,1.15,0,0,1,.314.3,8.527,8.527,0,0,1-.9,3.037c-.749,1.372-1.578,1.56-2.135,1.584a2.243,2.243,0,0,0-1.989,1.4A18.192,18.192,0,0,1,122,125.941c-.159.135-.326.267-.5.392a2.067,2.067,0,0,0-.455.332,10.68,10.68,0,0,1-6.116,2.079,10.811,10.811,0,0,1-5.99-2.04h0a1.777,1.777,0,0,0-.285-.195c-.216-.153-.428-.3-.632-.473a17.536,17.536,0,0,1-5.283-7.227,2.246,2.246,0,0,0-2-1.423,2.716,2.716,0,0,1-2.246-1.827,8.99,8.99,0,0,0,4.879-4.43ZM57.313,141.662l-.9-1.075-.952-1.159,3.894-1.276.407-.135,3.073,3.594a18.722,18.722,0,0,0,10.342,6.176,18.517,18.517,0,0,0,3.594.413h.335a18.415,18.415,0,0,0,13.831-6.071l.195-.213c.09-.03.18-.054.27-.078l.129-.039,4.214-1.378,1.911-.623,1.632-.533-.77.866-1.563,1.761L82.732,157.886l-5.5,6.191-.761.857-.491-.6L70.3,157.446h0Zm7.08-14.652a6.529,6.529,0,0,1-4.514,6.254l-.108.036-5.28,1.725-2.941-1.132-.4-.153a4.579,4.579,0,0,1-2.935-4.157v-.159l.021-.018a22.535,22.535,0,0,0,5.783-7.619,6.82,6.82,0,0,0,3.618-2.495,28.552,28.552,0,0,0,6.37,7.188c.12.1.243.192.368.3Zm4.241,2.378a18.689,18.689,0,0,0,8.087,1.932,18.95,18.95,0,0,0,8.425-2.04,11.48,11.48,0,0,0,4.846,7.245l-1.381,1.5h0l-.964,1.057a13.937,13.937,0,0,1-1.5,1.417l-.216.174c-.231.183-.467.356-.707.518-.12.084-.24.165-.362.243a13.445,13.445,0,0,1-1.611.9l-.279.129-.282.123c-.1.045-.2.087-.3.126A14.217,14.217,0,0,1,66.316,138.7l-2.222-2.561a10.962,10.962,0,0,0,4.528-6.751Zm29.157,5.643-3.894-1.5a7.02,7.02,0,0,1-4.511-6.376l-.018-.6.329-.273a28.833,28.833,0,0,0,5.918-6.889,6.673,6.673,0,0,0,3.468,2.288,22.046,22.046,0,0,0,6.155,7.9l.045.036a4.208,4.208,0,0,1-2.911,3.926l-.1.033ZM54.884,97.611v-.09c1.587-13.229,10.893-23.194,21.681-23.194,10.2,0,18.8,8.653,21.193,20.312-5.727-6.02-11.148-9.929-20.792-9.285a17.051,17.051,0,0,0-12.007,4.16,8.487,8.487,0,0,0-3.16,5.391l-6.733,2.935-.234.1A3.249,3.249,0,0,0,54.884,97.611Zm-2.031,6.706c.054-.081.12-.165.189-.252h0c.186-.222.4-.461.62-.674L56.836,102l6.937-3.025a4.22,4.22,0,0,0,2.516-3.669c0-.362.38-1.276,1.662-2.414a12.562,12.562,0,0,1,8.85-3.031,2.547,2.547,0,0,0,.338,0c9.042-.662,13.25,3.22,19.7,10.411l1.713,1.923.231.258h0a2.246,2.246,0,0,0,1.081.878,3.313,3.313,0,0,1,.482.4,1.045,1.045,0,0,1,.371.755,12.281,12.281,0,0,1-.443,2.351,10.852,10.852,0,0,1-.863,2.144l-.051.09c-1.342,2.4-2.977,2.462-3.522,2.486a2.252,2.252,0,0,0-.773.174,2.225,2.225,0,0,0-1.216,1.228q-.21.521-.449,1.033a25.251,25.251,0,0,1-6.589,8.838c-.243.2-.494.4-.752.6a2.133,2.133,0,0,0-.566.413h0a15.322,15.322,0,0,1-8.8,3,15.486,15.486,0,0,1-8.611-2.926,2.261,2.261,0,0,0-.38-.264H67.69c-.3-.213-.6-.434-.878-.659a24.559,24.559,0,0,1-7.02-9.177c-.144-.323-.279-.65-.407-.976a2.225,2.225,0,0,0-1.444-1.327,2.127,2.127,0,0,0-.554-.1c-1.95-.081-3.112-1.5-3.8-3.037a12.878,12.878,0,0,1-.952-3.693A2.307,2.307,0,0,1,52.853,104.317Zm-14.676-13c4.891,0,9.261,2.821,12.1,7.224-.054.656-.087,1.318-.1,1.977-.183.192-.377.4-.566.638a16.269,16.269,0,0,0-11.133-2.9,13.223,13.223,0,0,0-9.231,3.214,7.1,7.1,0,0,0-2.48,4.01l-3.852,1.671C24.277,98.063,30.738,91.3,38.183,91.3Zm-12.1,27.512a2.246,2.246,0,0,0-2-1.423c-2.177-.09-2.773-3.235-2.908-4.235a4.684,4.684,0,0,1,.488-.575L29,109.39a3.693,3.693,0,0,0,2.2-3.214c.1-.928,3.28-3.741,7.1-3.447a2.559,2.559,0,0,0,.338,0,12.279,12.279,0,0,1,9.584,3.013c.47,3.423,2.258,8.179,6.5,9.674-.078.177-.159.35-.252.518-.749,1.372-1.575,1.56-2.135,1.584a2.246,2.246,0,0,0-1.989,1.4,18.192,18.192,0,0,1-5.017,7.035c-.159.132-.32.261-.488.386a2.1,2.1,0,0,0-.467.341,10.659,10.659,0,0,1-6.113,2.076,10.819,10.819,0,0,1-5.99-2.04h0a2.33,2.33,0,0,0-.3-.21c-.21-.144-.416-.3-.617-.458A17.536,17.536,0,0,1,26.08,118.825Zm21.076,17.758-1.09,1.2-2.761.9a18.994,18.994,0,0,0-5.568,2.477,9.884,9.884,0,0,1-6.685-3.441l-1.2-1.414a8.656,8.656,0,0,0,2.869-4.238,14.11,14.11,0,0,0,5.547,1.2,14.394,14.394,0,0,0,5.8-1.249A9.054,9.054,0,0,0,47.157,136.582Zm-21.522,1.7,2,2.354a14.346,14.346,0,0,0,5.99,4.172,20.336,20.336,0,0,0-2.333,3.384l-7.634-9.264ZM29.4,152.968a20.927,20.927,0,0,0-.647,5l-1.177,7.6H18.82V154.807a2.246,2.246,0,0,0-4.493,0v10.764H4.867l1.986-12.816a2.2,2.2,0,0,0,.027-.344,10.786,10.786,0,0,1,7.85-10.575l.129-.039,4.214-1.378L29.4,152.965Zm78.976,23.864v-14.4a2.246,2.246,0,0,0-4.493,0v14.4H49.463V161.405a2.246,2.246,0,0,0-4.493,0v15.427H30.375l1.048-6.769.7-4.493,1.1-7.077a2.181,2.181,0,0,0,.024-.341v-.506a16.227,16.227,0,0,1,1.2-5.631h0a15.478,15.478,0,0,1,4.726-6.337,14.538,14.538,0,0,1,5.346-2.672.539.539,0,0,0,.132-.036l3.894-1.27h0l2.36-.773.515.626,2.878,3.5,16.88,20.51L74.66,169.8a.784.784,0,0,0,.066.075c.033.036.066.072.1.1a.537.537,0,0,0,.075.069c.054.048.108.093.165.135l.165.111.024.015.165.087a1.8,1.8,0,0,0,.264.1,1.1,1.1,0,0,0,.141.045h0l.126.027h.069l.162.021h.4a.7.7,0,0,0,.111-.015l.1-.015.093-.021q.084-.018.171-.045h0c.057-.018.111-.039.168-.063h.027a.66.66,0,0,0,.093-.045,1.1,1.1,0,0,0,.156-.081,1.394,1.394,0,0,0,.141-.09l.078-.057h0a.393.393,0,0,0,.072-.051l.075-.066c.054-.051.108-.1.159-.162h0a.03.03,0,0,0,0-.015l.06-.069,3.768-4.235,9.1-10.228,2.465-2.77,6.379-7.188,3.022-3.4.132-.15,5.244,2.019.042.015a14.3,14.3,0,0,0,3.894,1.468h0a15.134,15.134,0,0,1,6.409,6.889,16.589,16.589,0,0,1,1.53,6.948,2.4,2.4,0,0,0,.03.359l.982,6.029.734,4.493,1.1,6.769Zm30.477-11.261v-10a2.246,2.246,0,0,0-4.493,0v10h-8.686l-1.072-6.589a21.064,21.064,0,0,0-.863-5.8l10.737-12.064h0l3.474,1.336a2.5,2.5,0,0,0,.3.09,10.726,10.726,0,0,1,8.066,10.629,2.422,2.422,0,0,0,.027.359l1.965,12.04Z" transform="translate(0 -69.82)" fill="#bfccde"/>
</svg>
