<svg xmlns="http://www.w3.org/2000/svg" xmlns:xlink="http://www.w3.org/1999/xlink" width="526" height="251" viewBox="0 0 526 251">
  <defs>
    <clipPath id="clip-path">
      <rect width="526" height="251" fill="none"/>
    </clipPath>
  </defs>
  <g id="Repeat_Grid_6" data-name="Repeat Grid 6" clip-path="url(#clip-path)">
    <g id="Group_4501" data-name="Group 4501">
      <rect id="Rectangle_366" data-name="Rectangle 366" width="90" height="90" fill="none"/>
      <circle id="Ellipse_29" data-name="Ellipse 29" cx="4" cy="4" r="4" transform="translate(17 17)" fill="#bfccde"/>
      <circle id="Ellipse_30" data-name="Ellipse 30" cx="4" cy="4" r="4" transform="translate(41 17)" fill="#bfccde"/>
      <circle id="Ellipse_31" data-name="Ellipse 31" cx="4" cy="4" r="4" transform="translate(65 17)" fill="#bfccde"/>
      <circle id="Ellipse_32" data-name="Ellipse 32" cx="4" cy="4" r="4" transform="translate(17 41)" fill="#bfccde"/>
      <circle id="Ellipse_33" data-name="Ellipse 33" cx="4" cy="4" r="4" transform="translate(41 41)" fill="#bfccde"/>
      <circle id="Ellipse_34" data-name="Ellipse 34" cx="4" cy="4" r="4" transform="translate(65 41)" fill="#bfccde"/>
      <circle id="Ellipse_35" data-name="Ellipse 35" cx="4" cy="4" r="4" transform="translate(17 65)" fill="#bfccde"/>
      <circle id="Ellipse_36" data-name="Ellipse 36" cx="4" cy="4" r="4" transform="translate(41 65)" fill="#bfccde"/>
      <circle id="Ellipse_37" data-name="Ellipse 37" cx="4" cy="4" r="4" transform="translate(65 65)" fill="#bfccde"/>
    </g>
    <g id="Group_4501-2" data-name="Group 4501" transform="translate(68)">
      <rect id="Rectangle_366-2" data-name="Rectangle 366" width="90" height="90" fill="none"/>
      <circle id="Ellipse_29-2" data-name="Ellipse 29" cx="4" cy="4" r="4" transform="translate(17 17)" fill="#bfccde"/>
      <circle id="Ellipse_30-2" data-name="Ellipse 30" cx="4" cy="4" r="4" transform="translate(41 17)" fill="#bfccde"/>
      <circle id="Ellipse_31-2" data-name="Ellipse 31" cx="4" cy="4" r="4" transform="translate(65 17)" fill="#bfccde"/>
      <circle id="Ellipse_32-2" data-name="Ellipse 32" cx="4" cy="4" r="4" transform="translate(17 41)" fill="#bfccde"/>
      <circle id="Ellipse_33-2" data-name="Ellipse 33" cx="4" cy="4" r="4" transform="translate(41 41)" fill="#bfccde"/>
      <circle id="Ellipse_34-2" data-name="Ellipse 34" cx="4" cy="4" r="4" transform="translate(65 41)" fill="#bfccde"/>
      <circle id="Ellipse_35-2" data-name="Ellipse 35" cx="4" cy="4" r="4" transform="translate(17 65)" fill="#bfccde"/>
      <circle id="Ellipse_36-2" data-name="Ellipse 36" cx="4" cy="4" r="4" transform="translate(41 65)" fill="#bfccde"/>
      <circle id="Ellipse_37-2" data-name="Ellipse 37" cx="4" cy="4" r="4" transform="translate(65 65)" fill="#bfccde"/>
    </g>
    <g id="Group_4501-3" data-name="Group 4501" transform="translate(136)">
      <rect id="Rectangle_366-3" data-name="Rectangle 366" width="90" height="90" fill="none"/>
      <circle id="Ellipse_29-3" data-name="Ellipse 29" cx="4" cy="4" r="4" transform="translate(17 17)" fill="#bfccde"/>
      <circle id="Ellipse_30-3" data-name="Ellipse 30" cx="4" cy="4" r="4" transform="translate(41 17)" fill="#bfccde"/>
      <circle id="Ellipse_31-3" data-name="Ellipse 31" cx="4" cy="4" r="4" transform="translate(65 17)" fill="#bfccde"/>
      <circle id="Ellipse_32-3" data-name="Ellipse 32" cx="4" cy="4" r="4" transform="translate(17 41)" fill="#bfccde"/>
      <circle id="Ellipse_33-3" data-name="Ellipse 33" cx="4" cy="4" r="4" transform="translate(41 41)" fill="#bfccde"/>
      <circle id="Ellipse_34-3" data-name="Ellipse 34" cx="4" cy="4" r="4" transform="translate(65 41)" fill="#bfccde"/>
      <circle id="Ellipse_35-3" data-name="Ellipse 35" cx="4" cy="4" r="4" transform="translate(17 65)" fill="#bfccde"/>
      <circle id="Ellipse_36-3" data-name="Ellipse 36" cx="4" cy="4" r="4" transform="translate(41 65)" fill="#bfccde"/>
      <circle id="Ellipse_37-3" data-name="Ellipse 37" cx="4" cy="4" r="4" transform="translate(65 65)" fill="#bfccde"/>
    </g>
    <g id="Group_4501-4" data-name="Group 4501" transform="translate(204)">
      <rect id="Rectangle_366-4" data-name="Rectangle 366" width="90" height="90" fill="none"/>
      <circle id="Ellipse_29-4" data-name="Ellipse 29" cx="4" cy="4" r="4" transform="translate(17 17)" fill="#bfccde"/>
      <circle id="Ellipse_30-4" data-name="Ellipse 30" cx="4" cy="4" r="4" transform="translate(41 17)" fill="#bfccde"/>
      <circle id="Ellipse_31-4" data-name="Ellipse 31" cx="4" cy="4" r="4" transform="translate(65 17)" fill="#bfccde"/>
      <circle id="Ellipse_32-4" data-name="Ellipse 32" cx="4" cy="4" r="4" transform="translate(17 41)" fill="#bfccde"/>
      <circle id="Ellipse_33-4" data-name="Ellipse 33" cx="4" cy="4" r="4" transform="translate(41 41)" fill="#bfccde"/>
      <circle id="Ellipse_34-4" data-name="Ellipse 34" cx="4" cy="4" r="4" transform="translate(65 41)" fill="#bfccde"/>
      <circle id="Ellipse_35-4" data-name="Ellipse 35" cx="4" cy="4" r="4" transform="translate(17 65)" fill="#bfccde"/>
      <circle id="Ellipse_36-4" data-name="Ellipse 36" cx="4" cy="4" r="4" transform="translate(41 65)" fill="#bfccde"/>
      <circle id="Ellipse_37-4" data-name="Ellipse 37" cx="4" cy="4" r="4" transform="translate(65 65)" fill="#bfccde"/>
    </g>
    <g id="Group_4501-5" data-name="Group 4501" transform="translate(272)">
      <rect id="Rectangle_366-5" data-name="Rectangle 366" width="90" height="90" fill="none"/>
      <circle id="Ellipse_29-5" data-name="Ellipse 29" cx="4" cy="4" r="4" transform="translate(17 17)" fill="#bfccde"/>
      <circle id="Ellipse_30-5" data-name="Ellipse 30" cx="4" cy="4" r="4" transform="translate(41 17)" fill="#bfccde"/>
      <circle id="Ellipse_31-5" data-name="Ellipse 31" cx="4" cy="4" r="4" transform="translate(65 17)" fill="#bfccde"/>
      <circle id="Ellipse_32-5" data-name="Ellipse 32" cx="4" cy="4" r="4" transform="translate(17 41)" fill="#bfccde"/>
      <circle id="Ellipse_33-5" data-name="Ellipse 33" cx="4" cy="4" r="4" transform="translate(41 41)" fill="#bfccde"/>
      <circle id="Ellipse_34-5" data-name="Ellipse 34" cx="4" cy="4" r="4" transform="translate(65 41)" fill="#bfccde"/>
      <circle id="Ellipse_35-5" data-name="Ellipse 35" cx="4" cy="4" r="4" transform="translate(17 65)" fill="#bfccde"/>
      <circle id="Ellipse_36-5" data-name="Ellipse 36" cx="4" cy="4" r="4" transform="translate(41 65)" fill="#bfccde"/>
      <circle id="Ellipse_37-5" data-name="Ellipse 37" cx="4" cy="4" r="4" transform="translate(65 65)" fill="#bfccde"/>
    </g>
    <g id="Group_4501-6" data-name="Group 4501" transform="translate(340)">
      <rect id="Rectangle_366-6" data-name="Rectangle 366" width="90" height="90" fill="none"/>
      <circle id="Ellipse_29-6" data-name="Ellipse 29" cx="4" cy="4" r="4" transform="translate(17 17)" fill="#bfccde"/>
      <circle id="Ellipse_30-6" data-name="Ellipse 30" cx="4" cy="4" r="4" transform="translate(41 17)" fill="#bfccde"/>
      <circle id="Ellipse_31-6" data-name="Ellipse 31" cx="4" cy="4" r="4" transform="translate(65 17)" fill="#bfccde"/>
      <circle id="Ellipse_32-6" data-name="Ellipse 32" cx="4" cy="4" r="4" transform="translate(17 41)" fill="#bfccde"/>
      <circle id="Ellipse_33-6" data-name="Ellipse 33" cx="4" cy="4" r="4" transform="translate(41 41)" fill="#bfccde"/>
      <circle id="Ellipse_34-6" data-name="Ellipse 34" cx="4" cy="4" r="4" transform="translate(65 41)" fill="#bfccde"/>
      <circle id="Ellipse_35-6" data-name="Ellipse 35" cx="4" cy="4" r="4" transform="translate(17 65)" fill="#bfccde"/>
      <circle id="Ellipse_36-6" data-name="Ellipse 36" cx="4" cy="4" r="4" transform="translate(41 65)" fill="#bfccde"/>
      <circle id="Ellipse_37-6" data-name="Ellipse 37" cx="4" cy="4" r="4" transform="translate(65 65)" fill="#bfccde"/>
    </g>
    <g id="Group_4501-7" data-name="Group 4501" transform="translate(408)">
      <rect id="Rectangle_366-7" data-name="Rectangle 366" width="90" height="90" fill="none"/>
      <circle id="Ellipse_29-7" data-name="Ellipse 29" cx="4" cy="4" r="4" transform="translate(17 17)" fill="#bfccde"/>
      <circle id="Ellipse_30-7" data-name="Ellipse 30" cx="4" cy="4" r="4" transform="translate(41 17)" fill="#bfccde"/>
      <circle id="Ellipse_31-7" data-name="Ellipse 31" cx="4" cy="4" r="4" transform="translate(65 17)" fill="#bfccde"/>
      <circle id="Ellipse_32-7" data-name="Ellipse 32" cx="4" cy="4" r="4" transform="translate(17 41)" fill="#bfccde"/>
      <circle id="Ellipse_33-7" data-name="Ellipse 33" cx="4" cy="4" r="4" transform="translate(41 41)" fill="#bfccde"/>
      <circle id="Ellipse_34-7" data-name="Ellipse 34" cx="4" cy="4" r="4" transform="translate(65 41)" fill="#bfccde"/>
      <circle id="Ellipse_35-7" data-name="Ellipse 35" cx="4" cy="4" r="4" transform="translate(17 65)" fill="#bfccde"/>
      <circle id="Ellipse_36-7" data-name="Ellipse 36" cx="4" cy="4" r="4" transform="translate(41 65)" fill="#bfccde"/>
      <circle id="Ellipse_37-7" data-name="Ellipse 37" cx="4" cy="4" r="4" transform="translate(65 65)" fill="#bfccde"/>
    </g>
    <g id="Group_4501-8" data-name="Group 4501" transform="translate(476)">
      <rect id="Rectangle_366-8" data-name="Rectangle 366" width="90" height="90" fill="none"/>
      <circle id="Ellipse_29-8" data-name="Ellipse 29" cx="4" cy="4" r="4" transform="translate(17 17)" fill="#bfccde"/>
      <circle id="Ellipse_30-8" data-name="Ellipse 30" cx="4" cy="4" r="4" transform="translate(41 17)" fill="#bfccde"/>
      <circle id="Ellipse_31-8" data-name="Ellipse 31" cx="4" cy="4" r="4" transform="translate(65 17)" fill="#bfccde"/>
      <circle id="Ellipse_32-8" data-name="Ellipse 32" cx="4" cy="4" r="4" transform="translate(17 41)" fill="#bfccde"/>
      <circle id="Ellipse_33-8" data-name="Ellipse 33" cx="4" cy="4" r="4" transform="translate(41 41)" fill="#bfccde"/>
      <circle id="Ellipse_34-8" data-name="Ellipse 34" cx="4" cy="4" r="4" transform="translate(65 41)" fill="#bfccde"/>
      <circle id="Ellipse_35-8" data-name="Ellipse 35" cx="4" cy="4" r="4" transform="translate(17 65)" fill="#bfccde"/>
      <circle id="Ellipse_36-8" data-name="Ellipse 36" cx="4" cy="4" r="4" transform="translate(41 65)" fill="#bfccde"/>
      <circle id="Ellipse_37-8" data-name="Ellipse 37" cx="4" cy="4" r="4" transform="translate(65 65)" fill="#bfccde"/>
    </g>
    <g id="Group_4501-9" data-name="Group 4501" transform="translate(0 70)">
      <rect id="Rectangle_366-9" data-name="Rectangle 366" width="90" height="90" fill="none"/>
      <circle id="Ellipse_29-9" data-name="Ellipse 29" cx="4" cy="4" r="4" transform="translate(17 17)" fill="#bfccde"/>
      <circle id="Ellipse_30-9" data-name="Ellipse 30" cx="4" cy="4" r="4" transform="translate(41 17)" fill="#bfccde"/>
      <circle id="Ellipse_31-9" data-name="Ellipse 31" cx="4" cy="4" r="4" transform="translate(65 17)" fill="#bfccde"/>
      <circle id="Ellipse_32-9" data-name="Ellipse 32" cx="4" cy="4" r="4" transform="translate(17 41)" fill="#bfccde"/>
      <circle id="Ellipse_33-9" data-name="Ellipse 33" cx="4" cy="4" r="4" transform="translate(41 41)" fill="#bfccde"/>
      <circle id="Ellipse_34-9" data-name="Ellipse 34" cx="4" cy="4" r="4" transform="translate(65 41)" fill="#bfccde"/>
      <circle id="Ellipse_35-9" data-name="Ellipse 35" cx="4" cy="4" r="4" transform="translate(17 65)" fill="#bfccde"/>
      <circle id="Ellipse_36-9" data-name="Ellipse 36" cx="4" cy="4" r="4" transform="translate(41 65)" fill="#bfccde"/>
      <circle id="Ellipse_37-9" data-name="Ellipse 37" cx="4" cy="4" r="4" transform="translate(65 65)" fill="#bfccde"/>
    </g>
    <g id="Group_4501-10" data-name="Group 4501" transform="translate(68 70)">
      <rect id="Rectangle_366-10" data-name="Rectangle 366" width="90" height="90" fill="none"/>
      <circle id="Ellipse_29-10" data-name="Ellipse 29" cx="4" cy="4" r="4" transform="translate(17 17)" fill="#bfccde"/>
      <circle id="Ellipse_30-10" data-name="Ellipse 30" cx="4" cy="4" r="4" transform="translate(41 17)" fill="#bfccde"/>
      <circle id="Ellipse_31-10" data-name="Ellipse 31" cx="4" cy="4" r="4" transform="translate(65 17)" fill="#bfccde"/>
      <circle id="Ellipse_32-10" data-name="Ellipse 32" cx="4" cy="4" r="4" transform="translate(17 41)" fill="#bfccde"/>
      <circle id="Ellipse_33-10" data-name="Ellipse 33" cx="4" cy="4" r="4" transform="translate(41 41)" fill="#bfccde"/>
      <circle id="Ellipse_34-10" data-name="Ellipse 34" cx="4" cy="4" r="4" transform="translate(65 41)" fill="#bfccde"/>
      <circle id="Ellipse_35-10" data-name="Ellipse 35" cx="4" cy="4" r="4" transform="translate(17 65)" fill="#bfccde"/>
      <circle id="Ellipse_36-10" data-name="Ellipse 36" cx="4" cy="4" r="4" transform="translate(41 65)" fill="#bfccde"/>
      <circle id="Ellipse_37-10" data-name="Ellipse 37" cx="4" cy="4" r="4" transform="translate(65 65)" fill="#bfccde"/>
    </g>
    <g id="Group_4501-11" data-name="Group 4501" transform="translate(136 70)">
      <rect id="Rectangle_366-11" data-name="Rectangle 366" width="90" height="90" fill="none"/>
      <circle id="Ellipse_29-11" data-name="Ellipse 29" cx="4" cy="4" r="4" transform="translate(17 17)" fill="#bfccde"/>
      <circle id="Ellipse_30-11" data-name="Ellipse 30" cx="4" cy="4" r="4" transform="translate(41 17)" fill="#bfccde"/>
      <circle id="Ellipse_31-11" data-name="Ellipse 31" cx="4" cy="4" r="4" transform="translate(65 17)" fill="#bfccde"/>
      <circle id="Ellipse_32-11" data-name="Ellipse 32" cx="4" cy="4" r="4" transform="translate(17 41)" fill="#bfccde"/>
      <circle id="Ellipse_33-11" data-name="Ellipse 33" cx="4" cy="4" r="4" transform="translate(41 41)" fill="#bfccde"/>
      <circle id="Ellipse_34-11" data-name="Ellipse 34" cx="4" cy="4" r="4" transform="translate(65 41)" fill="#bfccde"/>
      <circle id="Ellipse_35-11" data-name="Ellipse 35" cx="4" cy="4" r="4" transform="translate(17 65)" fill="#bfccde"/>
      <circle id="Ellipse_36-11" data-name="Ellipse 36" cx="4" cy="4" r="4" transform="translate(41 65)" fill="#bfccde"/>
      <circle id="Ellipse_37-11" data-name="Ellipse 37" cx="4" cy="4" r="4" transform="translate(65 65)" fill="#bfccde"/>
    </g>
    <g id="Group_4501-12" data-name="Group 4501" transform="translate(204 70)">
      <rect id="Rectangle_366-12" data-name="Rectangle 366" width="90" height="90" fill="none"/>
      <circle id="Ellipse_29-12" data-name="Ellipse 29" cx="4" cy="4" r="4" transform="translate(17 17)" fill="#bfccde"/>
      <circle id="Ellipse_30-12" data-name="Ellipse 30" cx="4" cy="4" r="4" transform="translate(41 17)" fill="#bfccde"/>
      <circle id="Ellipse_31-12" data-name="Ellipse 31" cx="4" cy="4" r="4" transform="translate(65 17)" fill="#bfccde"/>
      <circle id="Ellipse_32-12" data-name="Ellipse 32" cx="4" cy="4" r="4" transform="translate(17 41)" fill="#bfccde"/>
      <circle id="Ellipse_33-12" data-name="Ellipse 33" cx="4" cy="4" r="4" transform="translate(41 41)" fill="#bfccde"/>
      <circle id="Ellipse_34-12" data-name="Ellipse 34" cx="4" cy="4" r="4" transform="translate(65 41)" fill="#bfccde"/>
      <circle id="Ellipse_35-12" data-name="Ellipse 35" cx="4" cy="4" r="4" transform="translate(17 65)" fill="#bfccde"/>
      <circle id="Ellipse_36-12" data-name="Ellipse 36" cx="4" cy="4" r="4" transform="translate(41 65)" fill="#bfccde"/>
      <circle id="Ellipse_37-12" data-name="Ellipse 37" cx="4" cy="4" r="4" transform="translate(65 65)" fill="#bfccde"/>
    </g>
    <g id="Group_4501-13" data-name="Group 4501" transform="translate(272 70)">
      <rect id="Rectangle_366-13" data-name="Rectangle 366" width="90" height="90" fill="none"/>
      <circle id="Ellipse_29-13" data-name="Ellipse 29" cx="4" cy="4" r="4" transform="translate(17 17)" fill="#bfccde"/>
      <circle id="Ellipse_30-13" data-name="Ellipse 30" cx="4" cy="4" r="4" transform="translate(41 17)" fill="#bfccde"/>
      <circle id="Ellipse_31-13" data-name="Ellipse 31" cx="4" cy="4" r="4" transform="translate(65 17)" fill="#bfccde"/>
      <circle id="Ellipse_32-13" data-name="Ellipse 32" cx="4" cy="4" r="4" transform="translate(17 41)" fill="#bfccde"/>
      <circle id="Ellipse_33-13" data-name="Ellipse 33" cx="4" cy="4" r="4" transform="translate(41 41)" fill="#bfccde"/>
      <circle id="Ellipse_34-13" data-name="Ellipse 34" cx="4" cy="4" r="4" transform="translate(65 41)" fill="#bfccde"/>
      <circle id="Ellipse_35-13" data-name="Ellipse 35" cx="4" cy="4" r="4" transform="translate(17 65)" fill="#bfccde"/>
      <circle id="Ellipse_36-13" data-name="Ellipse 36" cx="4" cy="4" r="4" transform="translate(41 65)" fill="#bfccde"/>
      <circle id="Ellipse_37-13" data-name="Ellipse 37" cx="4" cy="4" r="4" transform="translate(65 65)" fill="#bfccde"/>
    </g>
    <g id="Group_4501-14" data-name="Group 4501" transform="translate(340 70)">
      <rect id="Rectangle_366-14" data-name="Rectangle 366" width="90" height="90" fill="none"/>
      <circle id="Ellipse_29-14" data-name="Ellipse 29" cx="4" cy="4" r="4" transform="translate(17 17)" fill="#bfccde"/>
      <circle id="Ellipse_30-14" data-name="Ellipse 30" cx="4" cy="4" r="4" transform="translate(41 17)" fill="#bfccde"/>
      <circle id="Ellipse_31-14" data-name="Ellipse 31" cx="4" cy="4" r="4" transform="translate(65 17)" fill="#bfccde"/>
      <circle id="Ellipse_32-14" data-name="Ellipse 32" cx="4" cy="4" r="4" transform="translate(17 41)" fill="#bfccde"/>
      <circle id="Ellipse_33-14" data-name="Ellipse 33" cx="4" cy="4" r="4" transform="translate(41 41)" fill="#bfccde"/>
      <circle id="Ellipse_34-14" data-name="Ellipse 34" cx="4" cy="4" r="4" transform="translate(65 41)" fill="#bfccde"/>
      <circle id="Ellipse_35-14" data-name="Ellipse 35" cx="4" cy="4" r="4" transform="translate(17 65)" fill="#bfccde"/>
      <circle id="Ellipse_36-14" data-name="Ellipse 36" cx="4" cy="4" r="4" transform="translate(41 65)" fill="#bfccde"/>
      <circle id="Ellipse_37-14" data-name="Ellipse 37" cx="4" cy="4" r="4" transform="translate(65 65)" fill="#bfccde"/>
    </g>
    <g id="Group_4501-15" data-name="Group 4501" transform="translate(408 70)">
      <rect id="Rectangle_366-15" data-name="Rectangle 366" width="90" height="90" fill="none"/>
      <circle id="Ellipse_29-15" data-name="Ellipse 29" cx="4" cy="4" r="4" transform="translate(17 17)" fill="#bfccde"/>
      <circle id="Ellipse_30-15" data-name="Ellipse 30" cx="4" cy="4" r="4" transform="translate(41 17)" fill="#bfccde"/>
      <circle id="Ellipse_31-15" data-name="Ellipse 31" cx="4" cy="4" r="4" transform="translate(65 17)" fill="#bfccde"/>
      <circle id="Ellipse_32-15" data-name="Ellipse 32" cx="4" cy="4" r="4" transform="translate(17 41)" fill="#bfccde"/>
      <circle id="Ellipse_33-15" data-name="Ellipse 33" cx="4" cy="4" r="4" transform="translate(41 41)" fill="#bfccde"/>
      <circle id="Ellipse_34-15" data-name="Ellipse 34" cx="4" cy="4" r="4" transform="translate(65 41)" fill="#bfccde"/>
      <circle id="Ellipse_35-15" data-name="Ellipse 35" cx="4" cy="4" r="4" transform="translate(17 65)" fill="#bfccde"/>
      <circle id="Ellipse_36-15" data-name="Ellipse 36" cx="4" cy="4" r="4" transform="translate(41 65)" fill="#bfccde"/>
      <circle id="Ellipse_37-15" data-name="Ellipse 37" cx="4" cy="4" r="4" transform="translate(65 65)" fill="#bfccde"/>
    </g>
    <g id="Group_4501-16" data-name="Group 4501" transform="translate(476 70)">
      <rect id="Rectangle_366-16" data-name="Rectangle 366" width="90" height="90" fill="none"/>
      <circle id="Ellipse_29-16" data-name="Ellipse 29" cx="4" cy="4" r="4" transform="translate(17 17)" fill="#bfccde"/>
      <circle id="Ellipse_30-16" data-name="Ellipse 30" cx="4" cy="4" r="4" transform="translate(41 17)" fill="#bfccde"/>
      <circle id="Ellipse_31-16" data-name="Ellipse 31" cx="4" cy="4" r="4" transform="translate(65 17)" fill="#bfccde"/>
      <circle id="Ellipse_32-16" data-name="Ellipse 32" cx="4" cy="4" r="4" transform="translate(17 41)" fill="#bfccde"/>
      <circle id="Ellipse_33-16" data-name="Ellipse 33" cx="4" cy="4" r="4" transform="translate(41 41)" fill="#bfccde"/>
      <circle id="Ellipse_34-16" data-name="Ellipse 34" cx="4" cy="4" r="4" transform="translate(65 41)" fill="#bfccde"/>
      <circle id="Ellipse_35-16" data-name="Ellipse 35" cx="4" cy="4" r="4" transform="translate(17 65)" fill="#bfccde"/>
      <circle id="Ellipse_36-16" data-name="Ellipse 36" cx="4" cy="4" r="4" transform="translate(41 65)" fill="#bfccde"/>
      <circle id="Ellipse_37-16" data-name="Ellipse 37" cx="4" cy="4" r="4" transform="translate(65 65)" fill="#bfccde"/>
    </g>
    <g id="Group_4501-17" data-name="Group 4501" transform="translate(0 140)">
      <rect id="Rectangle_366-17" data-name="Rectangle 366" width="90" height="90" fill="none"/>
      <circle id="Ellipse_29-17" data-name="Ellipse 29" cx="4" cy="4" r="4" transform="translate(17 17)" fill="#bfccde"/>
      <circle id="Ellipse_30-17" data-name="Ellipse 30" cx="4" cy="4" r="4" transform="translate(41 17)" fill="#bfccde"/>
      <circle id="Ellipse_31-17" data-name="Ellipse 31" cx="4" cy="4" r="4" transform="translate(65 17)" fill="#bfccde"/>
      <circle id="Ellipse_32-17" data-name="Ellipse 32" cx="4" cy="4" r="4" transform="translate(17 41)" fill="#bfccde"/>
      <circle id="Ellipse_33-17" data-name="Ellipse 33" cx="4" cy="4" r="4" transform="translate(41 41)" fill="#bfccde"/>
      <circle id="Ellipse_34-17" data-name="Ellipse 34" cx="4" cy="4" r="4" transform="translate(65 41)" fill="#bfccde"/>
      <circle id="Ellipse_35-17" data-name="Ellipse 35" cx="4" cy="4" r="4" transform="translate(17 65)" fill="#bfccde"/>
      <circle id="Ellipse_36-17" data-name="Ellipse 36" cx="4" cy="4" r="4" transform="translate(41 65)" fill="#bfccde"/>
      <circle id="Ellipse_37-17" data-name="Ellipse 37" cx="4" cy="4" r="4" transform="translate(65 65)" fill="#bfccde"/>
    </g>
    <g id="Group_4501-18" data-name="Group 4501" transform="translate(68 140)">
      <rect id="Rectangle_366-18" data-name="Rectangle 366" width="90" height="90" fill="none"/>
      <circle id="Ellipse_29-18" data-name="Ellipse 29" cx="4" cy="4" r="4" transform="translate(17 17)" fill="#bfccde"/>
      <circle id="Ellipse_30-18" data-name="Ellipse 30" cx="4" cy="4" r="4" transform="translate(41 17)" fill="#bfccde"/>
      <circle id="Ellipse_31-18" data-name="Ellipse 31" cx="4" cy="4" r="4" transform="translate(65 17)" fill="#bfccde"/>
      <circle id="Ellipse_32-18" data-name="Ellipse 32" cx="4" cy="4" r="4" transform="translate(17 41)" fill="#bfccde"/>
      <circle id="Ellipse_33-18" data-name="Ellipse 33" cx="4" cy="4" r="4" transform="translate(41 41)" fill="#bfccde"/>
      <circle id="Ellipse_34-18" data-name="Ellipse 34" cx="4" cy="4" r="4" transform="translate(65 41)" fill="#bfccde"/>
      <circle id="Ellipse_35-18" data-name="Ellipse 35" cx="4" cy="4" r="4" transform="translate(17 65)" fill="#bfccde"/>
      <circle id="Ellipse_36-18" data-name="Ellipse 36" cx="4" cy="4" r="4" transform="translate(41 65)" fill="#bfccde"/>
      <circle id="Ellipse_37-18" data-name="Ellipse 37" cx="4" cy="4" r="4" transform="translate(65 65)" fill="#bfccde"/>
    </g>
    <g id="Group_4501-19" data-name="Group 4501" transform="translate(136 140)">
      <rect id="Rectangle_366-19" data-name="Rectangle 366" width="90" height="90" fill="none"/>
      <circle id="Ellipse_29-19" data-name="Ellipse 29" cx="4" cy="4" r="4" transform="translate(17 17)" fill="#bfccde"/>
      <circle id="Ellipse_30-19" data-name="Ellipse 30" cx="4" cy="4" r="4" transform="translate(41 17)" fill="#bfccde"/>
      <circle id="Ellipse_31-19" data-name="Ellipse 31" cx="4" cy="4" r="4" transform="translate(65 17)" fill="#bfccde"/>
      <circle id="Ellipse_32-19" data-name="Ellipse 32" cx="4" cy="4" r="4" transform="translate(17 41)" fill="#bfccde"/>
      <circle id="Ellipse_33-19" data-name="Ellipse 33" cx="4" cy="4" r="4" transform="translate(41 41)" fill="#bfccde"/>
      <circle id="Ellipse_34-19" data-name="Ellipse 34" cx="4" cy="4" r="4" transform="translate(65 41)" fill="#bfccde"/>
      <circle id="Ellipse_35-19" data-name="Ellipse 35" cx="4" cy="4" r="4" transform="translate(17 65)" fill="#bfccde"/>
      <circle id="Ellipse_36-19" data-name="Ellipse 36" cx="4" cy="4" r="4" transform="translate(41 65)" fill="#bfccde"/>
      <circle id="Ellipse_37-19" data-name="Ellipse 37" cx="4" cy="4" r="4" transform="translate(65 65)" fill="#bfccde"/>
    </g>
    <g id="Group_4501-20" data-name="Group 4501" transform="translate(204 140)">
      <rect id="Rectangle_366-20" data-name="Rectangle 366" width="90" height="90" fill="none"/>
      <circle id="Ellipse_29-20" data-name="Ellipse 29" cx="4" cy="4" r="4" transform="translate(17 17)" fill="#bfccde"/>
      <circle id="Ellipse_30-20" data-name="Ellipse 30" cx="4" cy="4" r="4" transform="translate(41 17)" fill="#bfccde"/>
      <circle id="Ellipse_31-20" data-name="Ellipse 31" cx="4" cy="4" r="4" transform="translate(65 17)" fill="#bfccde"/>
      <circle id="Ellipse_32-20" data-name="Ellipse 32" cx="4" cy="4" r="4" transform="translate(17 41)" fill="#bfccde"/>
      <circle id="Ellipse_33-20" data-name="Ellipse 33" cx="4" cy="4" r="4" transform="translate(41 41)" fill="#bfccde"/>
      <circle id="Ellipse_34-20" data-name="Ellipse 34" cx="4" cy="4" r="4" transform="translate(65 41)" fill="#bfccde"/>
      <circle id="Ellipse_35-20" data-name="Ellipse 35" cx="4" cy="4" r="4" transform="translate(17 65)" fill="#bfccde"/>
      <circle id="Ellipse_36-20" data-name="Ellipse 36" cx="4" cy="4" r="4" transform="translate(41 65)" fill="#bfccde"/>
      <circle id="Ellipse_37-20" data-name="Ellipse 37" cx="4" cy="4" r="4" transform="translate(65 65)" fill="#bfccde"/>
    </g>
    <g id="Group_4501-21" data-name="Group 4501" transform="translate(272 140)">
      <rect id="Rectangle_366-21" data-name="Rectangle 366" width="90" height="90" fill="none"/>
      <circle id="Ellipse_29-21" data-name="Ellipse 29" cx="4" cy="4" r="4" transform="translate(17 17)" fill="#bfccde"/>
      <circle id="Ellipse_30-21" data-name="Ellipse 30" cx="4" cy="4" r="4" transform="translate(41 17)" fill="#bfccde"/>
      <circle id="Ellipse_31-21" data-name="Ellipse 31" cx="4" cy="4" r="4" transform="translate(65 17)" fill="#bfccde"/>
      <circle id="Ellipse_32-21" data-name="Ellipse 32" cx="4" cy="4" r="4" transform="translate(17 41)" fill="#bfccde"/>
      <circle id="Ellipse_33-21" data-name="Ellipse 33" cx="4" cy="4" r="4" transform="translate(41 41)" fill="#bfccde"/>
      <circle id="Ellipse_34-21" data-name="Ellipse 34" cx="4" cy="4" r="4" transform="translate(65 41)" fill="#bfccde"/>
      <circle id="Ellipse_35-21" data-name="Ellipse 35" cx="4" cy="4" r="4" transform="translate(17 65)" fill="#bfccde"/>
      <circle id="Ellipse_36-21" data-name="Ellipse 36" cx="4" cy="4" r="4" transform="translate(41 65)" fill="#bfccde"/>
      <circle id="Ellipse_37-21" data-name="Ellipse 37" cx="4" cy="4" r="4" transform="translate(65 65)" fill="#bfccde"/>
    </g>
    <g id="Group_4501-22" data-name="Group 4501" transform="translate(340 140)">
      <rect id="Rectangle_366-22" data-name="Rectangle 366" width="90" height="90" fill="none"/>
      <circle id="Ellipse_29-22" data-name="Ellipse 29" cx="4" cy="4" r="4" transform="translate(17 17)" fill="#bfccde"/>
      <circle id="Ellipse_30-22" data-name="Ellipse 30" cx="4" cy="4" r="4" transform="translate(41 17)" fill="#bfccde"/>
      <circle id="Ellipse_31-22" data-name="Ellipse 31" cx="4" cy="4" r="4" transform="translate(65 17)" fill="#bfccde"/>
      <circle id="Ellipse_32-22" data-name="Ellipse 32" cx="4" cy="4" r="4" transform="translate(17 41)" fill="#bfccde"/>
      <circle id="Ellipse_33-22" data-name="Ellipse 33" cx="4" cy="4" r="4" transform="translate(41 41)" fill="#bfccde"/>
      <circle id="Ellipse_34-22" data-name="Ellipse 34" cx="4" cy="4" r="4" transform="translate(65 41)" fill="#bfccde"/>
      <circle id="Ellipse_35-22" data-name="Ellipse 35" cx="4" cy="4" r="4" transform="translate(17 65)" fill="#bfccde"/>
      <circle id="Ellipse_36-22" data-name="Ellipse 36" cx="4" cy="4" r="4" transform="translate(41 65)" fill="#bfccde"/>
      <circle id="Ellipse_37-22" data-name="Ellipse 37" cx="4" cy="4" r="4" transform="translate(65 65)" fill="#bfccde"/>
    </g>
    <g id="Group_4501-23" data-name="Group 4501" transform="translate(408 140)">
      <rect id="Rectangle_366-23" data-name="Rectangle 366" width="90" height="90" fill="none"/>
      <circle id="Ellipse_29-23" data-name="Ellipse 29" cx="4" cy="4" r="4" transform="translate(17 17)" fill="#bfccde"/>
      <circle id="Ellipse_30-23" data-name="Ellipse 30" cx="4" cy="4" r="4" transform="translate(41 17)" fill="#bfccde"/>
      <circle id="Ellipse_31-23" data-name="Ellipse 31" cx="4" cy="4" r="4" transform="translate(65 17)" fill="#bfccde"/>
      <circle id="Ellipse_32-23" data-name="Ellipse 32" cx="4" cy="4" r="4" transform="translate(17 41)" fill="#bfccde"/>
      <circle id="Ellipse_33-23" data-name="Ellipse 33" cx="4" cy="4" r="4" transform="translate(41 41)" fill="#bfccde"/>
      <circle id="Ellipse_34-23" data-name="Ellipse 34" cx="4" cy="4" r="4" transform="translate(65 41)" fill="#bfccde"/>
      <circle id="Ellipse_35-23" data-name="Ellipse 35" cx="4" cy="4" r="4" transform="translate(17 65)" fill="#bfccde"/>
      <circle id="Ellipse_36-23" data-name="Ellipse 36" cx="4" cy="4" r="4" transform="translate(41 65)" fill="#bfccde"/>
      <circle id="Ellipse_37-23" data-name="Ellipse 37" cx="4" cy="4" r="4" transform="translate(65 65)" fill="#bfccde"/>
    </g>
    <g id="Group_4501-24" data-name="Group 4501" transform="translate(476 140)">
      <rect id="Rectangle_366-24" data-name="Rectangle 366" width="90" height="90" fill="none"/>
      <circle id="Ellipse_29-24" data-name="Ellipse 29" cx="4" cy="4" r="4" transform="translate(17 17)" fill="#bfccde"/>
      <circle id="Ellipse_30-24" data-name="Ellipse 30" cx="4" cy="4" r="4" transform="translate(41 17)" fill="#bfccde"/>
      <circle id="Ellipse_31-24" data-name="Ellipse 31" cx="4" cy="4" r="4" transform="translate(65 17)" fill="#bfccde"/>
      <circle id="Ellipse_32-24" data-name="Ellipse 32" cx="4" cy="4" r="4" transform="translate(17 41)" fill="#bfccde"/>
      <circle id="Ellipse_33-24" data-name="Ellipse 33" cx="4" cy="4" r="4" transform="translate(41 41)" fill="#bfccde"/>
      <circle id="Ellipse_34-24" data-name="Ellipse 34" cx="4" cy="4" r="4" transform="translate(65 41)" fill="#bfccde"/>
      <circle id="Ellipse_35-24" data-name="Ellipse 35" cx="4" cy="4" r="4" transform="translate(17 65)" fill="#bfccde"/>
      <circle id="Ellipse_36-24" data-name="Ellipse 36" cx="4" cy="4" r="4" transform="translate(41 65)" fill="#bfccde"/>
      <circle id="Ellipse_37-24" data-name="Ellipse 37" cx="4" cy="4" r="4" transform="translate(65 65)" fill="#bfccde"/>
    </g>
    <g id="Group_4501-25" data-name="Group 4501" transform="translate(0 210)">
      <rect id="Rectangle_366-25" data-name="Rectangle 366" width="90" height="90" fill="none"/>
      <circle id="Ellipse_29-25" data-name="Ellipse 29" cx="4" cy="4" r="4" transform="translate(17 17)" fill="#bfccde"/>
      <circle id="Ellipse_30-25" data-name="Ellipse 30" cx="4" cy="4" r="4" transform="translate(41 17)" fill="#bfccde"/>
      <circle id="Ellipse_31-25" data-name="Ellipse 31" cx="4" cy="4" r="4" transform="translate(65 17)" fill="#bfccde"/>
      <circle id="Ellipse_32-25" data-name="Ellipse 32" cx="4" cy="4" r="4" transform="translate(17 41)" fill="#bfccde"/>
      <circle id="Ellipse_33-25" data-name="Ellipse 33" cx="4" cy="4" r="4" transform="translate(41 41)" fill="#bfccde"/>
      <circle id="Ellipse_34-25" data-name="Ellipse 34" cx="4" cy="4" r="4" transform="translate(65 41)" fill="#bfccde"/>
      <circle id="Ellipse_35-25" data-name="Ellipse 35" cx="4" cy="4" r="4" transform="translate(17 65)" fill="#bfccde"/>
      <circle id="Ellipse_36-25" data-name="Ellipse 36" cx="4" cy="4" r="4" transform="translate(41 65)" fill="#bfccde"/>
      <circle id="Ellipse_37-25" data-name="Ellipse 37" cx="4" cy="4" r="4" transform="translate(65 65)" fill="#bfccde"/>
    </g>
    <g id="Group_4501-26" data-name="Group 4501" transform="translate(68 210)">
      <rect id="Rectangle_366-26" data-name="Rectangle 366" width="90" height="90" fill="none"/>
      <circle id="Ellipse_29-26" data-name="Ellipse 29" cx="4" cy="4" r="4" transform="translate(17 17)" fill="#bfccde"/>
      <circle id="Ellipse_30-26" data-name="Ellipse 30" cx="4" cy="4" r="4" transform="translate(41 17)" fill="#bfccde"/>
      <circle id="Ellipse_31-26" data-name="Ellipse 31" cx="4" cy="4" r="4" transform="translate(65 17)" fill="#bfccde"/>
      <circle id="Ellipse_32-26" data-name="Ellipse 32" cx="4" cy="4" r="4" transform="translate(17 41)" fill="#bfccde"/>
      <circle id="Ellipse_33-26" data-name="Ellipse 33" cx="4" cy="4" r="4" transform="translate(41 41)" fill="#bfccde"/>
      <circle id="Ellipse_34-26" data-name="Ellipse 34" cx="4" cy="4" r="4" transform="translate(65 41)" fill="#bfccde"/>
      <circle id="Ellipse_35-26" data-name="Ellipse 35" cx="4" cy="4" r="4" transform="translate(17 65)" fill="#bfccde"/>
      <circle id="Ellipse_36-26" data-name="Ellipse 36" cx="4" cy="4" r="4" transform="translate(41 65)" fill="#bfccde"/>
      <circle id="Ellipse_37-26" data-name="Ellipse 37" cx="4" cy="4" r="4" transform="translate(65 65)" fill="#bfccde"/>
    </g>
    <g id="Group_4501-27" data-name="Group 4501" transform="translate(136 210)">
      <rect id="Rectangle_366-27" data-name="Rectangle 366" width="90" height="90" fill="none"/>
      <circle id="Ellipse_29-27" data-name="Ellipse 29" cx="4" cy="4" r="4" transform="translate(17 17)" fill="#bfccde"/>
      <circle id="Ellipse_30-27" data-name="Ellipse 30" cx="4" cy="4" r="4" transform="translate(41 17)" fill="#bfccde"/>
      <circle id="Ellipse_31-27" data-name="Ellipse 31" cx="4" cy="4" r="4" transform="translate(65 17)" fill="#bfccde"/>
      <circle id="Ellipse_32-27" data-name="Ellipse 32" cx="4" cy="4" r="4" transform="translate(17 41)" fill="#bfccde"/>
      <circle id="Ellipse_33-27" data-name="Ellipse 33" cx="4" cy="4" r="4" transform="translate(41 41)" fill="#bfccde"/>
      <circle id="Ellipse_34-27" data-name="Ellipse 34" cx="4" cy="4" r="4" transform="translate(65 41)" fill="#bfccde"/>
      <circle id="Ellipse_35-27" data-name="Ellipse 35" cx="4" cy="4" r="4" transform="translate(17 65)" fill="#bfccde"/>
      <circle id="Ellipse_36-27" data-name="Ellipse 36" cx="4" cy="4" r="4" transform="translate(41 65)" fill="#bfccde"/>
      <circle id="Ellipse_37-27" data-name="Ellipse 37" cx="4" cy="4" r="4" transform="translate(65 65)" fill="#bfccde"/>
    </g>
    <g id="Group_4501-28" data-name="Group 4501" transform="translate(204 210)">
      <rect id="Rectangle_366-28" data-name="Rectangle 366" width="90" height="90" fill="none"/>
      <circle id="Ellipse_29-28" data-name="Ellipse 29" cx="4" cy="4" r="4" transform="translate(17 17)" fill="#bfccde"/>
      <circle id="Ellipse_30-28" data-name="Ellipse 30" cx="4" cy="4" r="4" transform="translate(41 17)" fill="#bfccde"/>
      <circle id="Ellipse_31-28" data-name="Ellipse 31" cx="4" cy="4" r="4" transform="translate(65 17)" fill="#bfccde"/>
      <circle id="Ellipse_32-28" data-name="Ellipse 32" cx="4" cy="4" r="4" transform="translate(17 41)" fill="#bfccde"/>
      <circle id="Ellipse_33-28" data-name="Ellipse 33" cx="4" cy="4" r="4" transform="translate(41 41)" fill="#bfccde"/>
      <circle id="Ellipse_34-28" data-name="Ellipse 34" cx="4" cy="4" r="4" transform="translate(65 41)" fill="#bfccde"/>
      <circle id="Ellipse_35-28" data-name="Ellipse 35" cx="4" cy="4" r="4" transform="translate(17 65)" fill="#bfccde"/>
      <circle id="Ellipse_36-28" data-name="Ellipse 36" cx="4" cy="4" r="4" transform="translate(41 65)" fill="#bfccde"/>
      <circle id="Ellipse_37-28" data-name="Ellipse 37" cx="4" cy="4" r="4" transform="translate(65 65)" fill="#bfccde"/>
    </g>
    <g id="Group_4501-29" data-name="Group 4501" transform="translate(272 210)">
      <rect id="Rectangle_366-29" data-name="Rectangle 366" width="90" height="90" fill="none"/>
      <circle id="Ellipse_29-29" data-name="Ellipse 29" cx="4" cy="4" r="4" transform="translate(17 17)" fill="#bfccde"/>
      <circle id="Ellipse_30-29" data-name="Ellipse 30" cx="4" cy="4" r="4" transform="translate(41 17)" fill="#bfccde"/>
      <circle id="Ellipse_31-29" data-name="Ellipse 31" cx="4" cy="4" r="4" transform="translate(65 17)" fill="#bfccde"/>
      <circle id="Ellipse_32-29" data-name="Ellipse 32" cx="4" cy="4" r="4" transform="translate(17 41)" fill="#bfccde"/>
      <circle id="Ellipse_33-29" data-name="Ellipse 33" cx="4" cy="4" r="4" transform="translate(41 41)" fill="#bfccde"/>
      <circle id="Ellipse_34-29" data-name="Ellipse 34" cx="4" cy="4" r="4" transform="translate(65 41)" fill="#bfccde"/>
      <circle id="Ellipse_35-29" data-name="Ellipse 35" cx="4" cy="4" r="4" transform="translate(17 65)" fill="#bfccde"/>
      <circle id="Ellipse_36-29" data-name="Ellipse 36" cx="4" cy="4" r="4" transform="translate(41 65)" fill="#bfccde"/>
      <circle id="Ellipse_37-29" data-name="Ellipse 37" cx="4" cy="4" r="4" transform="translate(65 65)" fill="#bfccde"/>
    </g>
    <g id="Group_4501-30" data-name="Group 4501" transform="translate(340 210)">
      <rect id="Rectangle_366-30" data-name="Rectangle 366" width="90" height="90" fill="none"/>
      <circle id="Ellipse_29-30" data-name="Ellipse 29" cx="4" cy="4" r="4" transform="translate(17 17)" fill="#bfccde"/>
      <circle id="Ellipse_30-30" data-name="Ellipse 30" cx="4" cy="4" r="4" transform="translate(41 17)" fill="#bfccde"/>
      <circle id="Ellipse_31-30" data-name="Ellipse 31" cx="4" cy="4" r="4" transform="translate(65 17)" fill="#bfccde"/>
      <circle id="Ellipse_32-30" data-name="Ellipse 32" cx="4" cy="4" r="4" transform="translate(17 41)" fill="#bfccde"/>
      <circle id="Ellipse_33-30" data-name="Ellipse 33" cx="4" cy="4" r="4" transform="translate(41 41)" fill="#bfccde"/>
      <circle id="Ellipse_34-30" data-name="Ellipse 34" cx="4" cy="4" r="4" transform="translate(65 41)" fill="#bfccde"/>
      <circle id="Ellipse_35-30" data-name="Ellipse 35" cx="4" cy="4" r="4" transform="translate(17 65)" fill="#bfccde"/>
      <circle id="Ellipse_36-30" data-name="Ellipse 36" cx="4" cy="4" r="4" transform="translate(41 65)" fill="#bfccde"/>
      <circle id="Ellipse_37-30" data-name="Ellipse 37" cx="4" cy="4" r="4" transform="translate(65 65)" fill="#bfccde"/>
    </g>
    <g id="Group_4501-31" data-name="Group 4501" transform="translate(408 210)">
      <rect id="Rectangle_366-31" data-name="Rectangle 366" width="90" height="90" fill="none"/>
      <circle id="Ellipse_29-31" data-name="Ellipse 29" cx="4" cy="4" r="4" transform="translate(17 17)" fill="#bfccde"/>
      <circle id="Ellipse_30-31" data-name="Ellipse 30" cx="4" cy="4" r="4" transform="translate(41 17)" fill="#bfccde"/>
      <circle id="Ellipse_31-31" data-name="Ellipse 31" cx="4" cy="4" r="4" transform="translate(65 17)" fill="#bfccde"/>
      <circle id="Ellipse_32-31" data-name="Ellipse 32" cx="4" cy="4" r="4" transform="translate(17 41)" fill="#bfccde"/>
      <circle id="Ellipse_33-31" data-name="Ellipse 33" cx="4" cy="4" r="4" transform="translate(41 41)" fill="#bfccde"/>
      <circle id="Ellipse_34-31" data-name="Ellipse 34" cx="4" cy="4" r="4" transform="translate(65 41)" fill="#bfccde"/>
      <circle id="Ellipse_35-31" data-name="Ellipse 35" cx="4" cy="4" r="4" transform="translate(17 65)" fill="#bfccde"/>
      <circle id="Ellipse_36-31" data-name="Ellipse 36" cx="4" cy="4" r="4" transform="translate(41 65)" fill="#bfccde"/>
      <circle id="Ellipse_37-31" data-name="Ellipse 37" cx="4" cy="4" r="4" transform="translate(65 65)" fill="#bfccde"/>
    </g>
    <g id="Group_4501-32" data-name="Group 4501" transform="translate(476 210)">
      <rect id="Rectangle_366-32" data-name="Rectangle 366" width="90" height="90" fill="none"/>
      <circle id="Ellipse_29-32" data-name="Ellipse 29" cx="4" cy="4" r="4" transform="translate(17 17)" fill="#bfccde"/>
      <circle id="Ellipse_30-32" data-name="Ellipse 30" cx="4" cy="4" r="4" transform="translate(41 17)" fill="#bfccde"/>
      <circle id="Ellipse_31-32" data-name="Ellipse 31" cx="4" cy="4" r="4" transform="translate(65 17)" fill="#bfccde"/>
      <circle id="Ellipse_32-32" data-name="Ellipse 32" cx="4" cy="4" r="4" transform="translate(17 41)" fill="#bfccde"/>
      <circle id="Ellipse_33-32" data-name="Ellipse 33" cx="4" cy="4" r="4" transform="translate(41 41)" fill="#bfccde"/>
      <circle id="Ellipse_34-32" data-name="Ellipse 34" cx="4" cy="4" r="4" transform="translate(65 41)" fill="#bfccde"/>
      <circle id="Ellipse_35-32" data-name="Ellipse 35" cx="4" cy="4" r="4" transform="translate(17 65)" fill="#bfccde"/>
      <circle id="Ellipse_36-32" data-name="Ellipse 36" cx="4" cy="4" r="4" transform="translate(41 65)" fill="#bfccde"/>
      <circle id="Ellipse_37-32" data-name="Ellipse 37" cx="4" cy="4" r="4" transform="translate(65 65)" fill="#bfccde"/>
    </g>
  </g>
</svg>
