<svg xmlns="http://www.w3.org/2000/svg" width="89.623" height="95.677" viewBox="0 0 89.623 95.677">
  <path id="Path_797" data-name="Path 797" d="M86.987,11.492C76.273-.754,65.289,3.22,57.26,6.128a28.81,28.81,0,0,1-8.9,2.292,28.81,28.81,0,0,1-8.9-2.291C31.426,3.213,20.442-.76,9.728,11.493-3.48,26.579,7.4,51.288,15.33,69.331a85.735,85.735,0,0,1,6.123,16.277c1.458,9.777,7,13.179,11.595,13.179.231,0,.455-.01.678-.027a9.137,9.137,0,0,0,8.435-9.269l-.04-2.8c-.122-6.323-.417-21.131,3.9-25.528a3.221,3.221,0,0,1,4.678,0c4.312,4.4,4.021,19.206,3.9,25.528l-.04,2.8A9.137,9.137,0,0,0,62.99,98.76c.224.017.448.027.678.027,4.59,0,10.137-3.4,11.6-13.178a85.733,85.733,0,0,1,6.123-16.277C89.319,51.287,100.2,26.576,86.987,11.492ZM75.033,66.533A85.522,85.522,0,0,0,68.4,84.586c-.787,5.218-3.119,7.381-4.9,7.252A2.171,2.171,0,0,1,61.5,89.492l.04-2.658c.231-11.636-.02-24.549-5.885-30.53a10.162,10.162,0,0,0-14.592,0c-5.865,5.98-6.116,18.894-5.885,30.53l.04,2.658a2.171,2.171,0,0,1-2.007,2.346c-1.7.115-4.109-2.034-4.9-7.252a85.523,85.523,0,0,0-6.632-18.053C14.5,50.2,4.657,27.826,14.95,16.062c7.6-8.679,14.334-6.228,22.139-3.4a34.022,34.022,0,0,0,11.269,2.708A34.022,34.022,0,0,0,59.627,12.66c7.8-2.827,14.538-5.285,22.139,3.4,10.293,11.764.448,34.137-6.733,50.471Z" transform="translate(-3.546 -3.11)" fill="#bfccde"/>
</svg>
