<svg xmlns="http://www.w3.org/2000/svg" width="82.999" height="87.212" viewBox="0 0 82.999 87.212">
  <g id="Meet_Our_Team_Icon" data-name="Meet Our Team Icon" transform="translate(-228.825 -1381.268)">
    <path id="Path_777" data-name="Path 777" d="M326.334,216.028a50.133,50.133,0,0,0,3.621,7.449,9.557,9.557,0,0,1,.828,2.793l3.414,29.485a3.732,3.732,0,0,0,3.828,3.1h5.793a3.732,3.732,0,0,0,3.828-3.1l3.414-29.485a9.318,9.318,0,0,1,.828-2.9,1.462,1.462,0,0,0-.931-2.069,1.931,1.931,0,0,0-2.379.828,10.217,10.217,0,0,0-1.138,3.828l-3.414,29.485a.222.222,0,0,1-.207.207h-5.793a.223.223,0,0,1-.207-.207L334.4,225.96a12.554,12.554,0,0,0-1.138-3.828c0-.1,0-.1-.1-.1a42.917,42.917,0,0,1-3.414-6.828c-.931-3-1.138-9.621-.414-10.863a13.91,13.91,0,0,1,1.448-1.138,32.764,32.764,0,0,1,4.552-2.379l4.035,4.966a2,2,0,0,0,2.9,0l4.862-6a1.494,1.494,0,0,0-.414-2.276,2,2,0,0,0-2.483.31l-3.414,4.242-3.414-4.138a1.883,1.883,0,0,0-2.173-.517,38.966,38.966,0,0,0-6.621,3.311,14.412,14.412,0,0,0-1.966,1.552c-2.379,2.069-.931,11.587-.31,13.759Zm0,0" transform="translate(-96.501 1209.622)" fill="#fff"/>
    <path id="Path_778" data-name="Path 778" d="M340.576,195.908h.31a8.758,8.758,0,0,0,5.69-2.173c3-3,2.586-7.966,2.483-8.587-.31-5.483-4.552-7.449-8.173-7.449h-.31c-3.621,0-7.863,1.966-8.173,7.449-.1.621-.517,5.587,2.483,8.587A8.547,8.547,0,0,0,340.576,195.908Zm-4.552-10.552v-.1c.207-3.828,2.9-4.449,4.552-4.449h.31c1.655,0,4.345.517,4.552,4.449v.1c.1,1.138.1,4.449-1.552,6.207a4.8,4.8,0,0,1-6.207,0c-1.759-1.759-1.759-5.069-1.655-6.207Zm0,0" transform="translate(-96.26 1208.947)" fill="#fff"/>
    <path id="Path_779" data-name="Path 779" d="M380.836,221.21a1.488,1.488,0,0,0-.931,2.069,9.316,9.316,0,0,1,.828,2.9l3.414,29.485a3.732,3.732,0,0,0,3.828,3.1h5.793a3.732,3.732,0,0,0,3.828-3.1l3.414-29.485a8.715,8.715,0,0,1,.828-2.793c.31-.621,2.793-4.552,3.621-7.449.621-2.173,2.069-11.587-.414-13.966-.724-.621-1.138-.931-1.966-1.552a43.5,43.5,0,0,0-6.621-3.311,1.883,1.883,0,0,0-2.173.517l-3.414,4.242-3.414-4.138a1.91,1.91,0,0,0-2.483-.31,1.566,1.566,0,0,0-.414,2.276l4.862,6a2,2,0,0,0,2.9,0l4.035-4.966a32.763,32.763,0,0,1,4.552,2.379,13.906,13.906,0,0,1,1.448,1.138c.724,1.138.517,7.759-.414,10.863a35.718,35.718,0,0,1-3.414,6.828l-.1.1a10.217,10.217,0,0,0-1.138,3.828l-3.414,29.485a.223.223,0,0,1-.207.207h-5.793a.223.223,0,0,1-.207-.207l-3.414-29.485a12.554,12.554,0,0,0-1.138-3.828,1.762,1.762,0,0,0-2.276-.828Zm0,0" transform="translate(-94.621 1209.613)" fill="#fff"/>
    <path id="Path_780" data-name="Path 780" d="M390.575,195.908h.31a8.25,8.25,0,0,0,5.69-2.173c3-3,2.586-7.966,2.483-8.587-.31-5.483-4.552-7.449-8.173-7.449h-.31c-3.621,0-7.863,1.966-8.173,7.449-.1.621-.517,5.587,2.483,8.587A8.758,8.758,0,0,0,390.575,195.908Zm-4.552-10.552v-.1c.207-3.828,2.9-4.449,4.552-4.449h.31c1.655,0,4.345.517,4.552,4.449v.1c.1,1.138.1,4.449-1.552,6.207a4.8,4.8,0,0,1-6.207,0c-1.759-1.759-1.759-5.069-1.655-6.207Zm0,0" transform="translate(-94.532 1208.947)" fill="#fff"/>
    <path id="Path_781" data-name="Path 781" d="M351.051,198.674c-2.69,2.379-1.138,12.415-.414,14.691a39.776,39.776,0,0,0,3.931,7.966,7.8,7.8,0,0,1,.931,3l3.621,31.45a3.87,3.87,0,0,0,4.035,3.207h6.207a3.945,3.945,0,0,0,4.035-3.207l3.621-31.45a7.8,7.8,0,0,1,.931-3,42.713,42.713,0,0,0,3.931-7.966c.724-2.276,2.276-12.311-.414-14.691a10.807,10.807,0,0,0-2.069-1.552,43.9,43.9,0,0,0-7.035-3.517,1.883,1.883,0,0,0-2.173.517l-3.828,4.655-3.724-4.655a1.883,1.883,0,0,0-2.173-.517,39.8,39.8,0,0,0-7.035,3.517,5.945,5.945,0,0,0-2.379,1.552Zm2.586,2.173a8.159,8.159,0,0,1,1.552-1.241,33.263,33.263,0,0,1,4.966-2.586l4.345,5.38a2,2,0,0,0,2.9,0l4.345-5.38a33.259,33.259,0,0,1,4.966,2.586,8.159,8.159,0,0,1,1.552,1.241c.828,1.241.621,8.38-.414,11.587a43.666,43.666,0,0,1-3.621,7.242l-.1.1a14.683,14.683,0,0,0-1.241,4.138l-3.621,31.45c0,.207-.207.31-.414.31h-6.207c-.207,0-.31-.1-.414-.31l-3.621-31.45a11.945,11.945,0,0,0-1.241-4.138c0-.1,0-.1-.1-.1a43.666,43.666,0,0,1-3.621-7.242c-.621-3.207-.828-10.345,0-11.587Zm0,0" transform="translate(-95.665 1209.492)" fill="#fff"/>
    <path id="Path_782" data-name="Path 782" d="M365.589,191.846h.31a8.1,8.1,0,0,0,6-2.379c3.1-3.1,2.69-8.483,2.586-9.1-.31-5.793-4.759-7.863-8.587-7.863h-.31c-3.724,0-8.276,2.069-8.587,7.863-.1.621-.517,5.9,2.586,9.1A8.526,8.526,0,0,0,365.589,191.846Zm-4.966-11.173v-.1c.207-4.345,3.517-4.759,4.966-4.759h.31c1.448,0,4.759.414,4.966,4.759v.1c.1,1.241.1,4.862-1.759,6.621a4.613,4.613,0,0,1-3.414,1.241h-.1a4.613,4.613,0,0,1-3.414-1.241c-1.655-1.759-1.655-5.38-1.552-6.621Zm0,0" transform="translate(-95.41 1208.768)" fill="#fff"/>
  </g>
</svg>
