<svg xmlns="http://www.w3.org/2000/svg" width="65.176" height="88.699" viewBox="0 0 65.176 88.699">
  <g id="Patient_Forms_Icon" data-name="Patient Forms Icon" transform="translate(-835.248 -1380.712)">
    <path id="Path_788" data-name="Path 788" d="M970.673,180.795H956.913c-1.035-1.862-2.69-1.448-5.483-1.448A7.484,7.484,0,0,0,944.809,172a7.407,7.407,0,0,0-8.069,6.621v.724c-2.586,0-4.449-.414-5.483,1.448H917.5a5.894,5.894,0,0,0-5.9,5.9v26.381a1.448,1.448,0,0,0,2.9,0V186.692a3,3,0,0,1,3-3h13.346v3H919.049a1.414,1.414,0,0,0-1.448,1.448v65.073a1.414,1.414,0,0,0,1.448,1.448h50.279a1.414,1.414,0,0,0,1.448-1.448V231.074a1.448,1.448,0,0,0-2.9,0v20.691H920.6V189.692c12.518,0,10.345-.207,11.173.621a3.8,3.8,0,0,0,2.069.931c21.932,0,21.622.31,22.76-.828.828-.931-1.655-.621,11.173-.621v48.624a1.448,1.448,0,0,0,2.9,0V188.347a1.414,1.414,0,0,0-1.448-1.448H957.43v-3h13.346a3,3,0,0,1,3,3v67.866a3,3,0,0,1-3,3H939.74a1.448,1.448,0,1,0,0,2.9h31.036a5.894,5.894,0,0,0,5.9-5.9V186.8a6.142,6.142,0,0,0-6-6Zm-37.037,7.449v-5.9h4.449a1.414,1.414,0,0,0,1.448-1.448V179.45A4.416,4.416,0,0,1,943.981,175h.414a4.678,4.678,0,0,1,4.035,4.655V180.9a1.414,1.414,0,0,0,1.448,1.448h4.449v5.9Z" transform="translate(-76.248 1208.749)" fill="#fff"/>
    <path id="Path_790" data-name="Path 790" d="M942.948,177.7a1.448,1.448,0,1,0,1.448,1.448A1.357,1.357,0,0,0,942.948,177.7Z" transform="translate(-75.215 1208.947)" fill="#fff"/>
    <path id="Path_791" data-name="Path 791" d="M950.945,217.1c1.035-4.862,1.138-6.621,2.483-8.276a7.711,7.711,0,0,0-1.035-10.863,9.155,9.155,0,0,0-4.138-1.759c-3-.31-3.828,1.345-6.518.414a7.659,7.659,0,0,0-8.38,12.1c1.345,1.655,1.448,3.207,2.483,8.276a3.555,3.555,0,0,0,6.931.207l.621-2.69.621,2.69a3.523,3.523,0,0,0,4.242,2.586,3.571,3.571,0,0,0,2.69-2.69Zm-4.138-.621-.931-3.621a2.673,2.673,0,0,0-3.311-1.966,2.553,2.553,0,0,0-1.966,1.966l-.931,3.621a.588.588,0,0,1-.724.414.808.808,0,0,1-.414-.414l-1.035-5.069c-.931-4.552-3.414-4.552-3.1-7.863a4.682,4.682,0,0,1,5.173-4.242,3.675,3.675,0,0,1,1.035.207c3.621,1.241,5.069-.414,7.138-.207a4.682,4.682,0,0,1,4.242,5.173,4.747,4.747,0,0,1-1.035,2.586c-1.966,2.379-2.172,4.966-3.1,9.518a.588.588,0,0,1-.724.414c-.1-.207-.207-.31-.31-.517Z" transform="translate(-75.556 1209.585)" fill="#fff"/>
    <path id="Path_792" data-name="Path 792" d="M945.091,226.3H925.848a1.448,1.448,0,1,0,0,2.9h19.242a1.448,1.448,0,1,0,0-2.9Z" transform="translate(-75.806 1210.626)" fill="#fff"/>
    <path id="Path_793" data-name="Path 793" d="M945.091,233.4H925.848a1.448,1.448,0,1,0,0,2.9h19.242a1.414,1.414,0,0,0,1.448-1.448A1.48,1.48,0,0,0,945.091,233.4Z" transform="translate(-75.806 1210.872)" fill="#fff"/>
    <path id="Path_794" data-name="Path 794" d="M945.091,240.6H925.848a1.448,1.448,0,1,0,0,2.9h19.242a1.448,1.448,0,1,0,0-2.9Z" transform="translate(-75.806 1211.12)" fill="#fff"/>
    <path id="Path_795" data-name="Path 795" d="M960.445,226.3h-8.9a1.448,1.448,0,1,0,0,2.9h8.9a1.448,1.448,0,1,0,0-2.9Z" transform="translate(-74.918 1210.626)" fill="#fff"/>
    <path id="Path_796" data-name="Path 796" d="M960.445,233.4h-8.9a1.448,1.448,0,1,0,0,2.9h8.9a1.414,1.414,0,0,0,1.448-1.448A1.48,1.48,0,0,0,960.445,233.4Z" transform="translate(-74.918 1210.872)" fill="#fff"/>
    <path id="Path_797" data-name="Path 797" d="M960.445,240.6h-8.9a1.448,1.448,0,1,0,0,2.9h8.9a1.448,1.448,0,1,0,0-2.9Z" transform="translate(-74.918 1211.12)" fill="#fff"/>
    <path id="Path_789" data-name="Path 789" d="M943.881,256.824H917.4a3,3,0,0,1-3-3V197.648a1.448,1.448,0,0,0-2.9,0v56.279a5.894,5.894,0,0,0,5.9,5.9h26.484a1.414,1.414,0,0,0,1.448-1.448,1.439,1.439,0,0,0-1.448-1.552Z" transform="translate(-76.251 1209.586)" fill="#fff"/>
  </g>
</svg>
