<svg xmlns="http://www.w3.org/2000/svg" width="65.694" height="88.661" viewBox="0 0 65.694 88.661">
  <g id="Our_Services_Icon" data-name="Our Services Icon" transform="translate(-536.575 -1380.543)">
    <path id="Path_798" data-name="Path 798" d="M640.077,175.414h-7.242a5.171,5.171,0,0,0-10.035,1.759v78.108a5.173,5.173,0,1,0,10.345,0V199.622h6.931a5.122,5.122,0,0,0,5.173-5.173,4.851,4.851,0,0,0-1.345-3.414,5.244,5.244,0,0,0,1.345-3.414,4.851,4.851,0,0,0-1.345-3.414,5.244,5.244,0,0,0,1.345-3.414,5.173,5.173,0,0,0-5.173-5.38Zm1.759,5.173a1.744,1.744,0,0,1-1.759,1.759h-6.931v-3.414h6.931A1.658,1.658,0,0,1,641.836,180.587Zm0,6.931a1.744,1.744,0,0,1-1.759,1.759h-6.931v-3.414h6.931A1.6,1.6,0,0,1,641.836,187.518Zm-12.1,67.659a1.759,1.759,0,1,1-3.517,0V177.069a1.759,1.759,0,1,1,3.517,0v78.108ZM640.077,196.1h-6.931v-3.414h6.931a1.744,1.744,0,0,1,1.759,1.759A1.724,1.724,0,0,1,640.077,196.1Z" transform="translate(-86.225 1208.75)" fill="#fff"/>
    <path id="Path_799" data-name="Path 799" d="M687.571,258.495l-1.759-57.21a1.747,1.747,0,0,0-.31-1.035l-8.38-13.449-1.655-13.449a1.788,1.788,0,0,0-1.759-1.552H663.363a1.778,1.778,0,0,0-1.759,1.552L659.949,186.8l-8.483,13.553c-.1.1-.1.207-.207.414v.414L649.5,258.6a1.766,1.766,0,0,0,1.759,1.759h34.554a1.744,1.744,0,0,0,1.759-1.759v-.1Zm-22.657-83.074h7.345l1.345,10.345h-9.932Zm-2.276,13.759h11.9l6.518,10.345H656.224Zm-9.621,67.763.1-3.414h8.173a1.759,1.759,0,1,0,0-3.517h-8.069l1.448-46.968H682.4l.1,3.414h-8.069a1.759,1.759,0,0,0,0,3.517h8.173l1.448,46.968Z" transform="translate(-85.302 1208.743)" fill="#fff"/>
    <path id="Path_800" data-name="Path 800" d="M665.962,247.4a1.769,1.769,0,0,0-1.862,1.759,1.744,1.744,0,0,0,1.759,1.759h.1a1.744,1.744,0,0,0,1.759-1.759A1.891,1.891,0,0,0,665.962,247.4Z" transform="translate(-84.798 1211.355)" fill="#fff"/>
    <path id="Path_801" data-name="Path 801" d="M668.762,208.817a1.684,1.684,0,0,0,1.759-1.759,1.744,1.744,0,0,0-1.759-1.759h-.1a1.744,1.744,0,0,0-1.759,1.759A1.99,1.99,0,0,0,668.762,208.817Z" transform="translate(-84.701 1209.901)" fill="#fff"/>
    <path id="Path_802" data-name="Path 802" d="M668.19,219.7a8.69,8.69,0,1,0,8.69,8.69A8.676,8.676,0,0,0,668.19,219.7Zm0,13.863a5.173,5.173,0,1,1,5.173-5.173A5.188,5.188,0,0,1,668.19,233.563Z" transform="translate(-84.957 1210.398)" fill="#fff"/>
  </g>
</svg>
