<svg xmlns="http://www.w3.org/2000/svg" width="72.522" height="88.557" viewBox="0 0 72.522 88.557">
  <g id="Contact_Us_Icon" data-name="Contact Us Icon" transform="translate(-1135.06 -1381.992)">
    <path id="Path_803" data-name="Path 803" d="M1243.613,261.757h-37.864a4.416,4.416,0,0,1-4.449-4.449v-79.66a4.416,4.416,0,0,1,4.449-4.449h37.864a4.416,4.416,0,0,1,4.449,4.449V188.3h-3.518V177.649a.927.927,0,0,0-.931-.931h-37.864a.927.927,0,0,0-.931.931v79.66a.927.927,0,0,0,.931.931h37.864a.927.927,0,0,0,.931-.931V238.583h3.518v18.725A4.482,4.482,0,0,1,1243.613,261.757Z" transform="translate(-66.24 1208.792)" fill="#fff"/>
    <path id="Path_804" data-name="Path 804" d="M1208.4,243.3h32.071v3.517H1208.4Z" transform="translate(-65.995 1211.213)" fill="#fff"/>
    <path id="Path_805" data-name="Path 805" d="M1208.4,184.7h33v3.517h-33Z" transform="translate(-65.995 1209.189)" fill="#fff"/>
    <path id="Path_806" data-name="Path 806" d="M1216.9,179h14.484v3.517H1216.9Z" transform="translate(-65.701 1208.992)" fill="#fff"/>
    <path id="Path_807" data-name="Path 807" d="M1222.2,248.6h3.517v3.517H1222.2Z" transform="translate(-65.518 1211.396)" fill="#fff"/>
    <path id="Path_808" data-name="Path 808" d="M1219.979,240.469,1223.6,229.5a27.764,27.764,0,0,1,21.829-45v3.517a24.292,24.292,0,0,0-18.518,40.037l.621.724-1.655,5.173,4.862-2.276.828.621a23.925,23.925,0,0,0,13.863,4.345,24.35,24.35,0,0,0,24.312-24.312h3.518a27.9,27.9,0,0,1-27.829,27.829,27.4,27.4,0,0,1-15-4.449Z" transform="translate(-65.677 1209.182)" fill="#fff"/>
    <path id="Path_809" data-name="Path 809" d="M1271.521,211.362H1268a8.9,8.9,0,0,0-.1-1.655l3.517-.207A11.251,11.251,0,0,1,1271.521,211.362Z" transform="translate(-63.939 1210.046)" fill="#fff"/>
    <path id="Path_810" data-name="Path 810" d="M1268.136,207.45c-.207-1.035-.517-2.069-.828-3.1l3.311-1.138a19.526,19.526,0,0,1,.931,3.517Zm-1.966-6c-.517-.931-1.035-1.862-1.552-2.69l2.9-1.966,1.862,3.1Zm-3.517-5.276a23.637,23.637,0,0,0-2.276-2.276l2.38-2.69a30.5,30.5,0,0,1,2.586,2.586Zm-4.759-4.138a13.963,13.963,0,0,0-2.69-1.552l1.552-3.207a18.978,18.978,0,0,1,3.1,1.862Zm-5.69-2.793c-1.035-.31-2.069-.621-3.1-.828l.724-3.414a22.1,22.1,0,0,1,3.518.931Z" transform="translate(-64.589 1209.199)" fill="#fff"/>
    <path id="Path_811" data-name="Path 811" d="M1246.155,188.021c-.517,0-1.138-.1-1.655-.1V184.4a11.244,11.244,0,0,1,1.862.1Z" transform="translate(-64.748 1209.179)" fill="#fff"/>
    <path id="Path_812" data-name="Path 812" d="M1249.644,224.985c-2.483,0-3.414-2.483-4.862-6.1-1.345,3.724-2.276,6.1-4.759,6.1-2.173,0-4.449-2.483-4.449-7.966a9.443,9.443,0,0,0-.828-4.035,17.1,17.1,0,0,1-1.241-4.035c-.621-4.035.724-7.759,3.414-9.207,2.586-1.448,3.621-1.655,7.242-.621.31.1.517.1.828.207a2.435,2.435,0,0,0,.828-.207c3.518-.931,4.656-.828,7.242.724,2.69,1.448,4.035,5.173,3.414,9.207a15.647,15.647,0,0,1-1.241,4.035,8.108,8.108,0,0,0-.828,4.035c-.31,5.38-2.586,7.863-4.759,7.863Zm-9-22.967a4.792,4.792,0,0,0-2.172.828c-1.138.621-2.172,2.793-1.655,5.587a10.612,10.612,0,0,0,1.035,3.207,11.42,11.42,0,0,1,1.138,5.483,7.952,7.952,0,0,0,.931,4.242c.414-.724,1.035-2.483,1.552-3.621.931-2.586,2.38-3.1,3.31-3.1,1.448,0,2.483,1.035,3.311,3.1a17.251,17.251,0,0,0,1.552,3.621c.414-.517.931-1.759.931-4.242a11.9,11.9,0,0,1,1.138-5.38,14.6,14.6,0,0,0,1.035-3.207c.414-2.793-.517-4.862-1.552-5.483h-.1c-1.759-1.035-1.862-1.035-4.552-.31l-1.552.31h-.414a8.249,8.249,0,0,1-1.552-.31A6.3,6.3,0,0,0,1240.643,202.018Zm3.621,15.829" transform="translate(-65.133 1209.665)" fill="#fff"/>
  </g>
</svg>
