<svg xmlns="http://www.w3.org/2000/svg" width="108" height="108" viewBox="0 0 108 108">
  <g id="Group_4516" data-name="Group 4516" transform="translate(-191 -3159)">
    <path id="Path_792" data-name="Path 792" d="M54,0A54,54,0,1,1,0,54,54,54,0,0,1,54,0Z" transform="translate(191 3159)" fill="#fff"/>
    <g id="call_button" data-name="call button">
      <path id="Path_781" data-name="Path 781" d="M47.744,42.434a6.237,6.237,0,0,0-8.836,0l-3.015,3.015a54.345,54.345,0,0,1-9.376-7.526,55.342,55.342,0,0,1-7.526-9.376l3.015-3.015a6.237,6.237,0,0,0,0-8.836l-5.884-5.863A6.091,6.091,0,0,0,11.736,9h0a6.237,6.237,0,0,0-4.428,1.83L4.48,13.64a13.243,13.243,0,0,0-3.41,10.915c.665,7.8,5.78,17.172,13.659,25.073S32.089,62.621,39.886,63.37a16.363,16.363,0,0,0,1.746,0A12.619,12.619,0,0,0,50.8,59.96l2.807-2.827a6.237,6.237,0,0,0,1.83-4.428,6.091,6.091,0,0,0-1.83-4.387ZM50.676,54.2l-2.827,2.807a9.5,9.5,0,0,1-7.609,2.079c-6.757-.582-15.364-5.364-22.474-12.474S5.873,30.958,5.229,24.2a9.418,9.418,0,0,1,2.079-7.609l2.931-2.827a2.079,2.079,0,0,1,1.476-.6h0a2.079,2.079,0,0,1,1.476.6l5.884,5.946a2.079,2.079,0,0,1,0,2.931L14.917,26.8a2.079,2.079,0,0,0-.333,2.516,57.152,57.152,0,0,0,9,11.6,57.151,57.151,0,0,0,11.6,9,2.079,2.079,0,0,0,2.516-.333l4.158-4.158a2.079,2.079,0,0,1,2.931,0l5.884,5.884h0a2.032,2.032,0,0,1,0,2.89Zm3.617-44.075A31.019,31.019,0,0,0,32.256,1a2.079,2.079,0,0,0,0,4.158A27.027,27.027,0,0,1,59.283,32.414a2.079,2.079,0,0,0,2.079,2.079h0a2.079,2.079,0,0,0,2.079-2.079,31,31,0,0,0-9.148-22.287Z" transform="translate(212.85 3178.514)"/>
      <path id="Path_782" data-name="Path 782" d="M26.553,15.2a12.474,12.474,0,0,1,3.68,8.96,2.079,2.079,0,0,0,2.079,2.079h0a2.079,2.079,0,0,0,2.079-2.079A16.632,16.632,0,0,0,17.759,7.32a2.079,2.079,0,0,0,0,4.158A12.474,12.474,0,0,1,26.553,15.2Z" transform="translate(228.761 3185.333)"/>
    </g>
  </g>
</svg>
