<svg xmlns="http://www.w3.org/2000/svg" width="108" height="108" viewBox="0 0 108 108">
  <g id="Group_4519" data-name="Group 4519" transform="translate(-1150 -3160)">
    <g id="Group_4518" data-name="Group 4518">
      <circle id="Ellipse_8" data-name="Ellipse 8" cx="54" cy="54" r="54" transform="translate(1150 3160)" fill="#fff"/>
      <path id="Fill-3" d="M-4.427-212.471-7.056-215.1-31.41-190.747a8.019,8.019,0,0,1-11.208,0l-24.353-24.215-2.629,2.629,18.127,18.127L-69.6-176.079l2.629,2.629,18.127-18.127,3.6,3.6a11.535,11.535,0,0,0,8.164,3.459,11.535,11.535,0,0,0,8.164-3.459l3.6-3.6L-7.195-173.45l2.629-2.629-18.127-18.127,18.265-18.265" transform="translate(1240.875 3408.067)"/>
      <path id="Fill-4" d="M-9.432-167.556H-64.088a5.847,5.847,0,0,1-5.812-5.812v-39.021a5.847,5.847,0,0,1,5.812-5.812H-9.432a5.847,5.847,0,0,1,5.812,5.812v39.021a5.847,5.847,0,0,1-5.812,5.812Zm-54.795-46.908a1.892,1.892,0,0,0-1.937,1.937v39.021a1.892,1.892,0,0,0,1.937,1.937H-9.57a1.892,1.892,0,0,0,1.937-1.937v-39.021a1.892,1.892,0,0,0-1.937-1.937Z" transform="translate(1240.76 3406.878)"/>
    </g>
  </g>
</svg>
