<svg xmlns="http://www.w3.org/2000/svg" width="55.75" height="40.656" viewBox="0 0 55.75 40.656">
  <path id="Path_787" data-name="Path 787" d="M63.266,85.563H81.594a2.156,2.156,0,0,0,2.156-2.156V66.156A2.156,2.156,0,0,0,81.594,64H65.422a2.156,2.156,0,0,0-2.156,2.156V89.875a10.781,10.781,0,0,0,10.781,10.781M32,85.563H50.328a2.156,2.156,0,0,0,2.156-2.156V66.156A2.156,2.156,0,0,0,50.328,64H34.156A2.156,2.156,0,0,0,32,66.156V89.875a10.781,10.781,0,0,0,10.781,10.781" transform="translate(-30 -62)" fill="none" stroke="#fff" stroke-linecap="round" stroke-linejoin="round" stroke-width="4"/>
</svg>
